<?xml version="1.0" standalone="no"?>
<!DOCTYPE svg PUBLIC "-//W3C//DTD SVG 1.1//EN"
"http://www.w3.org/Graphics/SVG/1.1/DTD/svg11.dtd">

<svg width="438" height="263" view_box="0 0 438 263"
xmlns="http://www.w3.org/2000/svg"
xmlns:link="http://www.w3.org/1999/xlink">\n\n<desc>Généré par Mocodo 2.3.7 le Wed, 25 Mar 2020 02:55:18</desc>

<rect id="frame" x="0" y="0" width="438" height="263" fill="#ffffff" stroke="none" stroke-width="0"/>

<!-- Association BELONGS -->
<line x1="157" y1="136" x2="157" y2="220" stroke="#d6604d" stroke-width="2"/>
<text x="162.0" y="187" fill="#4d4d4d" font-family="Verdana" font-size="12">0,N</text>
<line x1="267" y1="220" x2="157" y2="220" stroke="#d6604d" stroke-width="2"/>
<text x="205" y="237.0" fill="#4d4d4d" font-family="Verdana" font-size="12">0,1</text>
<g id="association-BELONGS">
	<path d="M 180 195 a 14 14 90 0 1 14 14 V 220 h -74 V 209 a 14 14 90 0 1 14 -14" fill="#f4a582" stroke="#f4a582" stroke-width="0"/>
	<path d="M 194 220.0 v 11 a 14 14 90 0 1 -14 14 H 134 a 14 14 90 0 1 -14 -14 V 220.0 H 74" fill="#fddbc7" stroke="#fddbc7" stroke-width="0"/>
	<rect x="120" y="195" width="74" height="50" fill="none" rx="14" stroke="#d6604d" stroke-width="2"/>
	<line x1="120" y1="220" x2="194" y2="220" stroke="#d6604d" stroke-width="1"/>
	<text x="127" y="212.7" fill="#000000" font-family="Verdana" font-size="12">BELONGS</text>
</g>

<!-- Association CONTAINS -->
<line x1="157" y1="136" x2="267" y2="136" stroke="#d6604d" stroke-width="2"/>
<text x="200" y="153.0" fill="#4d4d4d" font-family="Verdana" font-size="12">0,N</text>
<line x1="384" y1="136" x2="267" y2="136" stroke="#d6604d" stroke-width="2"/>
<text x="312" y="153.0" fill="#4d4d4d" font-family="Verdana" font-size="12">0,N</text>
<g id="association-CONTAINS">
	<path d="M 293 111 a 14 14 90 0 1 14 14 V 136 h -80 V 125 a 14 14 90 0 1 14 -14" fill="#f4a582" stroke="#f4a582" stroke-width="0"/>
	<path d="M 307 136.0 v 11 a 14 14 90 0 1 -14 14 H 241 a 14 14 90 0 1 -14 -14 V 136.0 H 80" fill="#fddbc7" stroke="#fddbc7" stroke-width="0"/>
	<rect x="227" y="111" width="80" height="50" fill="none" rx="14" stroke="#d6604d" stroke-width="2"/>
	<line x1="227" y1="136" x2="307" y2="136" stroke="#d6604d" stroke-width="1"/>
	<text x="234" y="128.7" fill="#000000" font-family="Verdana" font-size="12">CONTAINS</text>
</g>

<!-- Association HAS -->
<line x1="384" y1="43" x2="267" y2="43" stroke="#d6604d" stroke-width="2"/>
<text x="332" y="60.0" fill="#4d4d4d" font-family="Verdana" font-size="12">0,N</text>
<line x1="157" y1="136" x2="267" y2="43" stroke="#d6604d" stroke-width="2"/>
<text x="200" y="114.636236558" fill="#4d4d4d" font-family="Verdana" font-size="12">0,N</text>
<g id="association-HAS">
	<path d="M 273 18 a 14 14 90 0 1 14 14 V 43 h -40 V 32 a 14 14 90 0 1 14 -14" fill="#f4a582" stroke="#f4a582" stroke-width="0"/>
	<path d="M 287 43.0 v 11 a 14 14 90 0 1 -14 14 H 261 a 14 14 90 0 1 -14 -14 V 43.0 H 40" fill="#fddbc7" stroke="#fddbc7" stroke-width="0"/>
	<rect x="247" y="18" width="40" height="50" fill="none" rx="14" stroke="#d6604d" stroke-width="2"/>
	<line x1="247" y1="43" x2="287" y2="43" stroke="#d6604d" stroke-width="1"/>
	<text x="254" y="35.7" fill="#000000" font-family="Verdana" font-size="12">HAS</text>
</g>

<!-- Association SELLS_BY -->
<line x1="157" y1="136" x2="48" y2="43" stroke="#d6604d" stroke-width="2"/>
<text x="93" y="114.296580207" fill="#4d4d4d" font-family="Verdana" font-size="12">0,1</text>
<line x1="157" y1="43" x2="48" y2="43" stroke="#d6604d" stroke-width="2"/>
<text x="103" y="60.0" fill="#4d4d4d" font-family="Verdana" font-size="12">0,N</text>
<g id="association-SELLS_BY">
	<path d="M 72 18 a 14 14 90 0 1 14 14 V 43 h -76 V 32 a 14 14 90 0 1 14 -14" fill="#f4a582" stroke="#f4a582" stroke-width="0"/>
	<path d="M 86 43.0 v 11 a 14 14 90 0 1 -14 14 H 24 a 14 14 90 0 1 -14 -14 V 43.0 H 76" fill="#fddbc7" stroke="#fddbc7" stroke-width="0"/>
	<rect x="10" y="18" width="76" height="50" fill="none" rx="14" stroke="#d6604d" stroke-width="2"/>
	<line x1="10" y1="43" x2="86" y2="43" stroke="#d6604d" stroke-width="1"/>
	<text x="17" y="35.7" fill="#000000" font-family="Verdana" font-size="12">SELLS_BY</text>
</g>

<!-- Association INCLUDES -->
<line x1="157" y1="136" x2="48" y2="136" stroke="#d6604d" stroke-width="2"/>
<text x="92" y="153.0" fill="#4d4d4d" font-family="Verdana" font-size="12">0,N</text>
<line x1="48" y1="220" x2="48" y2="136" stroke="#d6604d" stroke-width="2"/>
<text x="53.0" y="178" fill="#4d4d4d" font-family="Verdana" font-size="12">0,N</text>
<g id="association-INCLUDES">
	<path d="M 73 111 a 14 14 90 0 1 14 14 V 136 h -78 V 125 a 14 14 90 0 1 14 -14" fill="#f4a582" stroke="#f4a582" stroke-width="0"/>
	<path d="M 87 136.0 v 11 a 14 14 90 0 1 -14 14 H 23 a 14 14 90 0 1 -14 -14 V 136.0 H 78" fill="#fddbc7" stroke="#fddbc7" stroke-width="0"/>
	<rect x="9" y="111" width="78" height="50" fill="none" rx="14" stroke="#d6604d" stroke-width="2"/>
	<line x1="9" y1="136" x2="87" y2="136" stroke="#d6604d" stroke-width="1"/>
	<text x="16" y="128.7" fill="#000000" font-family="Verdana" font-size="12">INCLUDES</text>
</g>

<!-- Entity PICTURE -->
<g id="entity-PICTURE">
	<g id="frame-PICTURE">
		<rect x="231" y="186" width="72" height="25" fill="#bababa" stroke="#bababa" stroke-width="0"/>
		<rect x="231" y="211.0" width="72" height="43" fill="#e0e0e0" stroke="#e0e0e0" stroke-width="0"/>
		<rect x="231" y="186" width="72" height="68" fill="none" stroke="#878787" stroke-width="2"/>
		<line x1="231" y1="211" x2="303" y2="211" stroke="#878787" stroke-width="1"/>
	</g>
	<text x="240" y="203.7" fill="#000000" font-family="Verdana" font-size="12">PICTURE</text>
	<text x="236" y="228.8" fill="#000000" font-family="Verdana" font-size="12">picture_id</text>
	<line x1="236" y1="231" x2="297" y2="231" stroke="#000000" stroke-width="1"/>
	<text x="236" y="245.8" fill="#000000" font-family="Verdana" font-size="12">title</text>
</g>

<!-- Entity PRODUCT -->
<g id="entity-PRODUCT">
	<g id="frame-PRODUCT">
		<rect x="119" y="102" width="76" height="25" fill="#bababa" stroke="#bababa" stroke-width="0"/>
		<rect x="119" y="127.0" width="76" height="43" fill="#e0e0e0" stroke="#e0e0e0" stroke-width="0"/>
		<rect x="119" y="102" width="76" height="68" fill="none" stroke="#878787" stroke-width="2"/>
		<line x1="119" y1="127" x2="195" y2="127" stroke="#878787" stroke-width="1"/>
	</g>
	<text x="127" y="119.7" fill="#000000" font-family="Verdana" font-size="12">PRODUCT</text>
	<text x="124" y="144.8" fill="#000000" font-family="Verdana" font-size="12">product_id</text>
	<line x1="124" y1="147" x2="189" y2="147" stroke="#000000" stroke-width="1"/>
	<text x="124" y="161.8" fill="#000000" font-family="Verdana" font-size="12">title</text>
</g>

<!-- Entity TAG -->
<g id="entity-TAG">
	<g id="frame-TAG">
		<rect x="359" y="9" width="50" height="25" fill="#bababa" stroke="#bababa" stroke-width="0"/>
		<rect x="359" y="34.0" width="50" height="43" fill="#e0e0e0" stroke="#e0e0e0" stroke-width="0"/>
		<rect x="359" y="9" width="50" height="68" fill="none" stroke="#878787" stroke-width="2"/>
		<line x1="359" y1="34" x2="409" y2="34" stroke="#878787" stroke-width="1"/>
	</g>
	<text x="371" y="26.7" fill="#000000" font-family="Verdana" font-size="12">TAG</text>
	<text x="364" y="51.8" fill="#000000" font-family="Verdana" font-size="12">tag_id</text>
	<line x1="364" y1="54" x2="403" y2="54" stroke="#000000" stroke-width="1"/>
	<text x="364" y="68.8" fill="#000000" font-family="Verdana" font-size="12">title</text>
</g>

<!-- Entity ALLERGEN -->
<g id="entity-ALLERGEN">
	<g id="frame-ALLERGEN">
		<rect x="9" y="186" width="78" height="25" fill="#bababa" stroke="#bababa" stroke-width="0"/>
		<rect x="9" y="211.0" width="78" height="43" fill="#e0e0e0" stroke="#e0e0e0" stroke-width="0"/>
		<rect x="9" y="186" width="78" height="68" fill="none" stroke="#878787" stroke-width="2"/>
		<line x1="9" y1="211" x2="87" y2="211" stroke="#878787" stroke-width="1"/>
	</g>
	<text x="16" y="203.7" fill="#000000" font-family="Verdana" font-size="12">ALLERGEN</text>
	<text x="14" y="228.8" fill="#000000" font-family="Verdana" font-size="12">allergen_id</text>
	<line x1="14" y1="231" x2="82" y2="231" stroke="#000000" stroke-width="1"/>
	<text x="14" y="245.8" fill="#000000" font-family="Verdana" font-size="12">title</text>
</g>

<!-- Entity UNIT -->
<g id="entity-UNIT">
	<g id="frame-UNIT">
		<rect x="130" y="9" width="54" height="25" fill="#bababa" stroke="#bababa" stroke-width="0"/>
		<rect x="130" y="34.0" width="54" height="43" fill="#e0e0e0" stroke="#e0e0e0" stroke-width="0"/>
		<rect x="130" y="9" width="54" height="68" fill="none" stroke="#878787" stroke-width="2"/>
		<line x1="130" y1="34" x2="184" y2="34" stroke="#878787" stroke-width="1"/>
	</g>
	<text x="141" y="26.7" fill="#000000" font-family="Verdana" font-size="12">UNIT</text>
	<text x="135" y="51.8" fill="#000000" font-family="Verdana" font-size="12">unit_id</text>
	<line x1="135" y1="54" x2="178" y2="54" stroke="#000000" stroke-width="1"/>
	<text x="135" y="68.8" fill="#000000" font-family="Verdana" font-size="12">title</text>
</g>

<!-- Entity INGREDIENT -->
<g id="entity-INGREDIENT">
	<g id="frame-INGREDIENT">
		<rect x="339" y="102" width="90" height="25" fill="#bababa" stroke="#bababa" stroke-width="0"/>
		<rect x="339" y="127.0" width="90" height="43" fill="#e0e0e0" stroke="#e0e0e0" stroke-width="0"/>
		<rect x="339" y="102" width="90" height="68" fill="none" stroke="#878787" stroke-width="2"/>
		<line x1="339" y1="127" x2="429" y2="127" stroke="#878787" stroke-width="1"/>
	</g>
	<text x="344" y="119.7" fill="#000000" font-family="Verdana" font-size="12">INGREDIENT</text>
	<text x="344" y="144.8" fill="#000000" font-family="Verdana" font-size="12">ingredient_id</text>
	<line x1="344" y1="147" x2="424" y2="147" stroke="#000000" stroke-width="1"/>
	<text x="344" y="161.8" fill="#000000" font-family="Verdana" font-size="12">title</text>
</g>
</svg>